<svg xmlns="http://www.w3.org/2000/svg" viewBox="0 0 383.95 383.95"><defs><style>.cls-1{fill:#fff;}.cls-2{fill:#231f20;}</style></defs><g id="Layer_2" data-name="Layer 2"><g id="Layer_1-2" data-name="Layer 1"><rect class="cls-1" width="383.95" height="383.95" rx="56.15"/><path class="cls-2" d="M193,59.36c5.17,9,10.19,17.77,15.19,26.51q23.38,40.8,46.78,81.59a4.3,4.3,0,0,1-.06,5q-34.22,58.08-68.3,116.23c-.48.82-.9,1.68-1.63,3.06l85,.89a13,13,0,0,1-.71,1.85c-5.45,9.41-10.94,18.79-16.37,28.21a3.19,3.19,0,0,1-3.16,1.89q-58.51-.09-117,0c-.38,0-.76-.05-1.5-.1,1-1.91,1.95-3.68,2.93-5.41q41.82-73.51,83.71-147a4.48,4.48,0,0,0,0-5.21c-7.83-13.51-15.53-27.1-23.28-40.66-.46-.82-1-1.6-1.69-2.69l-45.62,78.26c-1.12-1.78-2.05-3.24-2.94-4.72-4.92-8.15-9.87-16.28-14.69-24.49a4,4,0,0,1-.3-3.3q31.45-54.63,63.09-109.15A6.21,6.21,0,0,1,193,59.36Z"/><path class="cls-2" d="M39.44,324l69.19-119.52c.57.78,1.05,1.33,1.42,1.95,5.77,9.66,11.58,19.3,17.21,29a4.51,4.51,0,0,1,0,3.85Q103,281.06,78.52,322.67A3.72,3.72,0,0,1,76,324.46c-11.76.11-23.53.06-35.29,0A6.36,6.36,0,0,1,39.44,324Z"/><path class="cls-2" d="M277.37,204.33,344.5,324.55h-3c-10.2,0-20.41-.05-30.62,0a3.77,3.77,0,0,1-3.87-2.15q-24-42-48.28-84a3.84,3.84,0,0,1,.06-4.69c5.71-8.9,11.25-17.9,16.86-26.87C276.16,206.09,276.71,205.31,277.37,204.33Z"/></g></g></svg>