<svg xmlns="http://www.w3.org/2000/svg" viewBox="0 0 13057.72 3322.37"><defs><style>.cls-1{fill:#231f20;}.cls-2{fill:#fff;}</style></defs><g id="Layer_2" data-name="Layer 2"><g id="Layer_1-2" data-name="Layer 1"><path class="cls-1" d="M1503.31,1700.35c0,470.14-324.26,744.22-714.49,744.22C347.49,2444.57,0,2095.22,0,1667.83c0-428.32,349.35-781.38,777.67-781.38,194.19,1.85,401.38,91,548.18,234.14l-167.24,249.93C1041.54,1256.24,907.75,1191.19,774,1191.19c-232.28,0-467.35,197-467.35,476.64,0,260.16,202.55,473.85,495.22,473.85,213.7,0,367-109.64,377.22-289.88H791.61V1574h704.27C1500.53,1617.66,1503.31,1659.47,1503.31,1700.35Z"/><path class="cls-2" d="M881.94,2453.26c-439.74,0-797.5-352.36-797.5-785.44,0-435.63,352.76-790.06,786.35-790.06,197,1.87,404.15,90.3,554.25,236.59l5.17,5.05L1253.14,1384l-7.47-7.31C1127.16,1261,996.24,1199.88,867.08,1199.88c-221.51,0-458.66,188-458.66,467.94C408.42,1933,617.58,2133,895,2133c210.33,0,353.62-106.61,367.89-272.48H876.05V1565.31h720.76l.82,7.77c5,47.26,7.48,88.89,7.48,127.27C1605.11,2143.64,1307.74,2453.26,881.94,2453.26ZM870.71,895.13c-423.94,0-768.9,346.62-768.9,772.69,0,423.52,350,768.07,780.13,768.07,415.57,0,705.81-302.47,705.81-735.54,0-35.65-2.16-74.22-6.58-117.67H893.42v260.44h387.94l-.52,9.18c-10.26,181-161.74,298-385.89,298-287.27,0-503.9-207.44-503.9-482.52,0-290.3,246.14-485.31,476-485.31,131,0,263.36,60.31,383.21,174.54l157.43-235.28C1263.2,983.58,1058.12,896.9,870.71,895.13Z"/><path class="cls-1" d="M4256.09,1584.21c0,464.55-295.45,747-779.52,747H3040.8V834.4l435.77-.91C3960.64,832.56,4256.09,1116.86,4256.09,1584.21Zm-303.82-.93c0-280.6-180.25-451.56-476.64-451.56H3340.92v899.4h137.5C3773,2031.12,3952.27,1862,3952.27,1583.28Z"/><path class="cls-1" d="M5889.4,1616.72c0,470.15-324.27,744.23-714.5,744.23-441.33,0-788.81-349.35-788.81-776.74,0-428.32,349.33-781.39,777.67-781.39,194.18,1.85,401.37,91,548.18,234.14l-167.25,249.93c-117.08-114.28-250.86-179.32-384.66-179.32-232.27,0-467.35,197-467.35,476.64,0,260.16,202.56,473.84,495.23,473.84,213.7,0,367-109.63,377.22-289.87H5177.68V1490.37H5882C5886.6,1534,5889.4,1575.85,5889.4,1616.72Z"/><path class="cls-1" d="M6385.44,1129.87v292.67H6902v300.1h-516.6V2032h602.08v299.19H6084.41V833.49h903.11v296.38Z"/><path class="cls-1" d="M8156.27,1131.72H7788.34v1199.5h-302V1131.72H7117.52V833.49H8156.27Z"/><path class="cls-1" d="M9261.88,1131.72H8894v1199.5H8592V1131.72H8223.13V833.49H9261.88Z"/><path class="cls-1" d="M10220.64,2331.22l-476.64-708v708H9443L9442,833.49h488.72c279.66,0,509.15,215.55,509.15,485,0,192.34-116.13,360.52-276.86,417.18l425.52,595.57ZM9743.07,1508l193.27.94c102.2.91,193.26-81.77,193.26-188.62s-92-188.62-193.26-188.62H9743.07Z"/><path class="cls-1" d="M11624.7,1530,10840.31,77.45c-17.13-31.71,5.84-70.21,41.88-70.21h236.9a47.61,47.61,0,0,1,42.25,25.67l610.24,1175.9c17.42,33.57,65.14,34.39,83.7,1.45L12054,857.72a47.6,47.6,0,0,1,41.47-24.23h234.08c36.92,0,59.78,40.22,40.89,72l-371.21,623.2a47.61,47.61,0,0,0-.33,48.14l960,1664.08c18.3,31.73-4.6,71.38-41.23,71.38h-235.54a47.56,47.56,0,0,1-41.37-24.08l-788-1386.5c-18.28-32.17-64.67-32.09-82.84.14L11541.44,2307a47.59,47.59,0,0,1-41.46,24.22h-234.82c-36.76,0-59.64-39.91-41.07-71.64l399.81-682.93A47.61,47.61,0,0,0,11624.7,1530Z"/><path class="cls-2" d="M13001.36,3322.37h-235.54a56.36,56.36,0,0,1-48.93-28.48l-788-1386.5c-7-12.36-20.46-19.47-33.9-19.69a38.47,38.47,0,0,0-33.82,19.81l-228.44,405.19a56.34,56.34,0,0,1-49,28.64h-234.82a56.28,56.28,0,0,1-48.57-84.72l399.81-682.93a39.11,39.11,0,0,0,.64-38.14L10916.36,83a56.29,56.29,0,0,1,49.53-83h236.92a56,56,0,0,1,49.93,30.34L11863,1206.25a38.39,38.39,0,0,0,33.87,21h.73a38.38,38.38,0,0,0,33.85-19.79l198.66-352.54a56.36,56.36,0,0,1,49-28.66h234.09a56.27,56.27,0,0,1,48.35,85.07l-371.21,623.21a38.94,38.94,0,0,0-.27,39.35l960,1664.08a56.28,56.28,0,0,1-48.73,84.41Zm-1106.31-1452a55.59,55.59,0,0,1,48.91,28.48l788,1386.5a39,39,0,0,0,33.84,19.69h235.54a38.91,38.91,0,0,0,33.71-58.36l-960-1664.08a56.32,56.32,0,0,1,.39-56.91l371.22-623.22a38.91,38.91,0,0,0-33.43-58.82h-234.09a39,39,0,0,0-33.9,19.83L11946.56,1216c-10.33,18.32-29.44,28.62-50,28.65a55.56,55.56,0,0,1-49-30.36L11237.34,38.35a38.78,38.78,0,0,0-34.53-21h-236.92a38.91,38.91,0,0,0-34.23,57.39l784.39,1452.55a56.68,56.68,0,0,1-.95,55.17l-399.81,682.93a38.91,38.91,0,0,0,33.58,58.56h234.82a39,39,0,0,0,33.89-19.79L11846,1899a55.64,55.64,0,0,1,48.91-28.67Z"/><path class="cls-2" d="M6231,1669.33a23.79,23.79,0,1,1-.33-47.58,25,25,0,0,1,16.74,7.14l.15.16-5.34,8-.23-.22c-3.58-3.5-7.53-5.34-11.43-5.34a14.19,14.19,0,0,0-13.86,14.13c0,8,6.32,14.05,14.7,14.05,6.35,0,10.68-3.22,11.11-8.23h-11.68v-8.92h21.77l0,.24a36.84,36.84,0,0,1,.23,3.84C6252.89,1660,6243.9,1669.33,6231,1669.33Zm-.33-47.06a23.27,23.27,0,1,0,.33,46.54c12.56,0,21.32-9.14,21.32-22.22a33.3,33.3,0,0,0-.2-3.55h-20.77v7.86h11.72l0,.28c-.31,5.47-4.88,9-11.65,9-8.68,0-15.22-6.26-15.22-14.57A14.72,14.72,0,0,1,6230.6,1631c3.95,0,7.95,1.82,11.57,5.27l4.75-7.1A24.8,24.8,0,0,0,6230.71,1622.27Z"/><path class="cls-2" d="M3569.68,2342.68H3125.23V828.54l444.43-.94h2.41c243.72,0,445.25,72.61,583,210.08,132.69,132.44,202.84,322.38,202.84,549.31C4357.88,2053.12,4055.87,2342.68,3569.68,2342.68Zm-427.08-17.37h427.08c482.68,0,770.84-276,770.84-738.32,0-222.21-68.39-407.91-197.75-537C4008.38,915.83,3811,845,3572.07,845h-2.37l-427.1.9Zm428.93-282.73H3425.35V1125.84h143.4c299.35,0,485.32,176.35,485.32,460.24C4054.07,1867.65,3869.17,2042.58,3571.53,2042.58Zm-128.82-17.36h128.82c291.28,0,465.17-164.16,465.17-439.14,0-277.33-174.93-442.88-467.95-442.88h-126Z"/><path class="cls-2" d="M5268,2372.43c-439.74,0-797.5-352.35-797.5-785.44,0-435.63,352.76-790,786.35-790,197,1.86,404.14,90.3,554.24,236.58l5.17,5-177.07,264.62-7.48-7.31c-118.52-115.69-249.43-176.83-378.59-176.83-221.5,0-458.66,188-458.66,467.94,0,265.18,209.17,465.16,486.55,465.16,210.32,0,353.62-106.61,367.88-272.49h-386.8V1484.48h720.76l.83,7.77c5,47.37,7.49,89,7.49,127.27C5991.19,2062.82,5693.81,2372.43,5268,2372.43ZM5256.79,814.31c-423.95,0-768.9,346.62-768.9,772.68,0,423.52,350,768.07,780.13,768.07,415.56,0,705.81-302.47,705.81-735.54,0-35.55-2.16-74.12-6.58-117.67H5279.48v260.44h388l-.53,9.18c-10.26,181-161.72,298-385.88,298-287.28,0-503.92-207.45-503.92-482.53,0-290.29,246.15-485.31,476-485.31,131,0,263.36,60.32,383.22,174.54L5793.79,1041C5649.27,902.76,5444.18,816.07,5256.79,814.31Z"/><path class="cls-2" d="M7089.32,2342.68H6168.84V827.6h920.48v313.74H6487.24v275.3h516.6v317.47h-516.6v292h602.08Zm-903.11-17.37H7072V2043.5H6469.87V1716.74h516.6V1434h-516.6V1124H7072V845H6186.21Z"/><path class="cls-2" d="M7890.14,2342.68H7570.81V1143.2H7202V827.6H8258.06v315.6H7890.14Zm-302-17.37h284.59V1125.84H8240.7V845H7219.32v280.87h368.86Z"/><path class="cls-2" d="M8995.76,2342.68H8676.43V1143.2H8307.57V827.6H9363.68v315.6H8995.76Zm-302-17.37h284.6V1125.84h367.92V845H8324.94v280.87h368.85Z"/><path class="cls-2" d="M10698.56,2342.68h-389.43l-463.33-688.2v688.2H9527.4V2334l-.93-1506.4h497.4c285.53,0,517.84,221.46,517.84,493.65,0,187.6-111.23,359.09-271.88,421.39Zm-380.17-17.37h346.42l-422.42-591.2,10.89-3.85c159.59-56.28,271.06-224.48,271.06-409,0-262.61-224.51-476.28-500.47-476.28h-480l.93,1480.34h283.66V1597.59Zm-287.3-804.87h-1.73l-201.86-1v-393.6h202c109.46,0,201.95,90.34,201.95,197.28,0,52-20.68,101.12-58.25,138.33C10135.27,1499,10083.59,1520.44,10031.09,1520.44Zm-186.22-18.27,184.63.9h1.56c48,0,95.22-19.61,129.87-54,34.24-33.94,53.1-78.68,53.1-126,0-97.52-84.53-179.92-184.58-179.92H9844.87Z"/><path class="cls-2" d="M6528.86,2830.94v-247h79.26v246.78c0,42.79,33.77,73.9,71.7,73.9s72.22-31.37,72.22-73.9V2583.94h79.25v247c0,88.72-67.84,153.42-151.21,153.42S6528.86,2919.66,6528.86,2830.94Z"/><path class="cls-2" d="M7211,2583v400.16h-3.63l-232.67-226.32v219.52H6896V2576.65h3.89L7132,2802.52V2583Z"/><path class="cls-2" d="M7515.41,2897.56v78.28H7279.1v-391.9h78.77v313.62Z"/><path class="cls-2" d="M7530.48,2780.38c0-112.58,91.64-204.44,203.73-204.44s203.95,91.86,203.95,204.44c0,111.6-91.86,203-204.21,203C7622.12,2983.39,7530.48,2892,7530.48,2780.38Zm327.94-.49c0-68.56-55.88-124.47-124.47-124.47-68.3,0-124,55.91-124,124.47,0,68.07,55.66,123.76,124,123.76C7802.54,2903.65,7858.42,2848,7858.42,2779.89Z"/><path class="cls-2" d="M7972.2,2780.15c0-110.63,93.09-204.21,203.5-204.21,51,.71,96.27,20.87,137.34,60.52l-45.48,62c-26.71-26.26-58.8-42.34-92.61-42.34-63,0-123,55.95-123,124.47,0,69.79,62.23,123.76,122.78,123.76,36,0,67.1-19.19,93.1-44.73l45.22,63.7c-34.53,34.26-76.6,60.06-135.92,60.06C8064.09,2983.39,7972.2,2890.26,7972.2,2780.15Z"/><path class="cls-2" d="M8555,2975.84,8435.79,2804.2v171.64h-78.51v-391.9h78.51v169.44l110.15-169.44h90.92l-125.67,191.8,139.51,200.1Z"/><path class="cls-2" d="M9082,2662h-96.27v313.87h-79V2662h-96.53v-78H9082Z"/><path class="cls-2" d="M9424.05,2583.94v391.9h-78.54V2818.79H9204.73v157.05h-78.5v-391.9h78.5v156.79h140.78V2583.94Z"/><path class="cls-2" d="M9570.86,2661.51v76.57H9706v78.51H9570.86v81H9728.4v78.28H9492.09v-391.9H9728.4v77.57Z"/><path class="cls-2" d="M10316,2574.22v401.62h-78.77V2805.18l-112.8,164.08h-.46l-113.06-164.08v170.66h-78.77V2574.22h4.38l187.68,258.9,187.46-258.9Z"/><path class="cls-2" d="M10622.1,2921.16h-156.82l-25,54.68h-85.12l187.22-401.62h2.4l187.46,401.62h-85.35Zm-30.66-67.1-47.65-104.8-47.88,104.8Z"/><path class="cls-2" d="M11111.24,2788.9c0,123-84.86,194.72-187,194.72-115.46,0-206.38-91.41-206.38-203.24,0-112.06,91.41-204.44,203.47-204.44,50.82.45,105,23.79,143.46,61.26l-43.76,65.38c-30.66-29.92-65.67-46.9-100.68-46.9-60.74,0-122.26,51.54-122.26,124.7,0,68.07,53,124,129.59,124,55.88,0,96-28.68,98.67-75.85H10925v-72.67h184.28A308.44,308.44,0,0,1,11111.24,2788.9Z"/><path class="cls-2" d="M11162.3,2583.94h78.76v391.9h-78.76Z"/><path class="cls-2" d="M11292.12,2780.15c0-110.63,93.09-204.21,203.5-204.21,51,.71,96.27,20.87,137.34,60.52l-45.48,62c-26.71-26.26-58.8-42.34-92.61-42.34-63,0-123,55.95-123,124.47,0,69.79,62.23,123.76,122.78,123.76,36,0,67.1-19.19,93.1-44.73l45.22,63.7c-34.52,34.26-76.6,60.06-135.92,60.06C11384,2983.39,11292.12,2890.26,11292.12,2780.15Z"/><path class="cls-1" d="M1988.23,1865.74l-212.77,465.48h-325.2L2165.68,796.31h9.3l716.33,1534.91H2565.2l-211.83-465.48m0,0-182.12-400.46-183,400.46"/><path class="cls-2" d="M2998.06,2342.68H2652.73l-214.14-470.55,8.2-3.73-8.2,3.73L2264.36,1489l-175.12,383.16-7.89-3.61,7.89,3.61-215.08,470.53h-344.4L2253.28,790.43h20.35l2.34,5Zm-334.14-17.37h306.87L2263.45,809.69,1557,2325.31h306l401.39-878.17Z"/><path class="cls-1" d="M10731.56,833.49h301.05V2331.22h-301.05Z"/><path class="cls-2" d="M11134.41,2342.68H10816V827.6h318.42Zm-301-17.37H11117V845h-283.68Z"/></g></g></svg>