<?xml version="1.0" standalone="no"?>
<!DOCTYPE svg PUBLIC "-//W3C//DTD SVG 20010904//EN"
 "http://www.w3.org/TR/2001/REC-SVG-20010904/DTD/svg10.dtd">
<svg version="1.0" xmlns="http://www.w3.org/2000/svg"
 width="1042.000000pt" height="1042.000000pt" viewBox="0 0 1042.000000 1042.000000"
 preserveAspectRatio="xMidYMid meet">
<metadata>
Created by potrace 1.14, written by Peter Selinger 2001-2017
</metadata>
<g transform="translate(0.000000,1042.000000) scale(0.100000,-0.100000)"
fill="#000000" stroke="none">
<path d="M5140 10398 c-31 -21 -134 -222 -962 -1878 -622 -1243 -928 -1864
-928 -1885 0 -57 31 -95 126 -154 72 -46 90 -61 92 -83 2 -20 -66 -151 -271
-515 -151 -268 -284 -505 -296 -526 -12 -21 -40 -71 -63 -110 -22 -40 -60
-106 -83 -147 -23 -41 -73 -129 -110 -195 -37 -66 -81 -145 -98 -175 -17 -30
-41 -72 -54 -92 -13 -21 -23 -40 -23 -42 0 -16 -93 -155 -106 -160 -9 -4 -32
3 -51 14 -60 35 -139 23 -180 -30 -7 -8 -310 -609 -673 -1335 -534 -1069 -660
-1327 -660 -1359 0 -49 31 -99 74 -120 31 -15 404 -16 4348 -16 l4313 0 32 23
c37 26 63 75 63 117 0 20 -234 498 -670 1371 l-671 1341 -42 18 c-48 21 -91
18 -142 -10 -26 -15 -37 -16 -55 -7 -16 8 -84 119 -202 327 -98 173 -184 326
-191 340 -6 14 -28 53 -49 88 -21 34 -38 64 -38 66 0 2 -31 59 -70 126 -38 67
-70 124 -70 126 0 2 -10 21 -23 42 -13 20 -37 62 -54 92 -17 30 -50 89 -73
130 -23 41 -58 104 -77 140 -20 36 -39 70 -43 75 -15 20 -202 360 -210 381
-13 32 7 54 105 113 92 57 118 90 118 151 0 50 -1841 3732 -1878 3756 -15 9
-47 19 -73 21 -38 4 -54 0 -82 -19z m710 -4202 c85 -14 335 -67 475 -101 174
-41 207 -46 322 -45 63 0 120 8 184 24 68 18 97 22 107 14 7 -6 38 -56 70
-112 31 -55 62 -108 67 -118 15 -26 50 -88 77 -138 13 -25 74 -133 135 -240
60 -107 122 -217 138 -245 15 -27 66 -117 113 -200 47 -82 99 -175 115 -205
16 -30 33 -59 37 -65 4 -5 26 -44 48 -86 l41 -75 -19 -31 c-10 -17 -28 -38
-40 -46 -12 -8 -54 -47 -93 -85 -88 -85 -211 -188 -247 -207 -15 -8 -35 -12
-46 -10 -10 2 -22 4 -26 4 -3 1 -75 56 -160 123 -378 300 -839 627 -1153 818
-146 89 -283 169 -375 220 -52 29 -117 65 -145 80 -165 91 -315 159 -356 161
-73 4 -303 -70 -348 -111 -14 -14 -47 -52 -71 -84 -68 -89 -200 -218 -278
-270 -140 -93 -263 -136 -395 -138 -72 -1 -79 1 -103 27 -24 26 -25 33 -19 79
3 28 15 70 25 93 21 48 291 451 447 668 91 126 116 154 158 177 43 23 151 55
245 73 53 10 147 25 200 31 30 3 66 7 79 9 13 2 76 7 140 11 64 3 117 7 118 8
7 6 494 -2 533 -8z m-2331 -135 c107 -85 302 -147 550 -177 114 -14 115 2 -12
-189 -246 -373 -260 -397 -278 -461 -21 -75 -20 -196 2 -234 50 -89 102 -113
239 -113 124 0 209 19 325 72 167 78 297 182 429 345 74 91 115 122 195 151
130 46 199 26 516 -150 484 -269 950 -579 1445 -965 209 -162 336 -267 364
-301 83 -98 73 -234 -23 -320 -57 -52 -80 -62 -156 -65 -58 -3 -80 1 -120 20
-90 42 -156 128 -192 250 -49 165 -167 283 -334 332 -70 21 -199 21 -279 -1
-94 -25 -122 -22 -205 21 -83 43 -117 41 -144 -7 -30 -53 -18 -62 474 -358
254 -152 474 -283 489 -291 15 -8 39 -28 53 -44 22 -26 24 -35 19 -92 -12
-131 -60 -189 -194 -229 -58 -18 -146 -11 -199 15 -55 26 -118 88 -183 178
-83 116 -198 198 -332 236 -82 24 -95 27 -181 31 -54 3 -92 11 -124 26 -54 26
-91 19 -111 -24 -23 -48 -1 -72 147 -159 74 -43 135 -78 137 -78 2 0 209 -126
294 -180 8 -5 42 -23 75 -41 75 -40 165 -89 187 -103 26 -16 38 -51 28 -85 -5
-17 -7 -31 -5 -31 3 0 -5 -21 -16 -47 -41 -97 -114 -144 -222 -144 -109 0
-227 47 -622 245 -235 118 -263 125 -294 75 -10 -17 -16 -39 -14 -50 5 -18 61
-69 75 -69 3 0 102 -47 219 -104 308 -149 383 -186 392 -195 4 -4 -22 -40 -58
-79 -49 -53 -84 -80 -133 -104 -63 -30 -74 -32 -177 -33 -112 0 -182 7 -264
26 -64 15 -251 68 -281 79 -14 5 -38 14 -53 20 l-28 10 35 46 c77 101 99 234
57 344 -66 174 -185 261 -383 279 -4 1 -7 25 -7 54 0 203 -137 371 -333 409
l-65 12 -1 60 c-2 100 -19 157 -69 233 -41 62 -84 98 -173 144 -58 30 -74 34
-145 34 -70 0 -86 -3 -129 -29 -27 -16 -84 -62 -127 -103 -70 -67 -99 -82 -99
-52 0 17 -61 101 -100 138 -47 46 -142 89 -217 99 -97 13 -189 -17 -267 -89
l-29 -27 -75 91 c-42 51 -104 126 -138 167 l-62 76 79 139 c43 76 79 139 79
140 0 1 66 118 146 261 80 142 180 320 222 394 41 74 84 147 94 163 11 15 16
27 12 27 -4 0 0 8 8 18 8 9 61 101 119 204 57 103 106 188 108 188 2 0 20 -13
40 -29z m-284 -1885 c127 -60 185 -190 136 -300 -32 -73 -110 -185 -168 -242
-70 -69 -129 -81 -213 -43 -131 59 -199 215 -141 325 37 72 169 237 208 261
50 30 113 30 178 -1z m711 -55 c51 -23 106 -79 132 -134 15 -31 20 -59 18
-108 -3 -81 -11 -95 -150 -253 -49 -55 -172 -227 -227 -317 -66 -108 -133
-183 -177 -201 -89 -35 -230 31 -282 132 -38 75 -41 107 -16 170 24 59 45 90
316 460 132 180 163 217 205 241 60 34 120 38 181 10z m399 -476 c46 -22 100
-77 127 -128 16 -31 22 -59 22 -107 0 -74 -11 -100 -76 -176 -90 -105 -122
-145 -169 -214 -27 -39 -49 -74 -49 -79 0 -5 -4 -11 -8 -13 -4 -1 -21 -25 -37
-53 -49 -86 -94 -116 -176 -117 -128 -1 -245 120 -243 252 0 75 23 116 111
202 98 96 163 183 217 293 47 95 82 136 131 152 40 13 108 7 150 -12z m408
-469 c44 -19 109 -81 133 -127 23 -45 30 -140 13 -181 -7 -18 -40 -69 -74
-113 -34 -44 -83 -111 -109 -148 -57 -81 -101 -116 -163 -132 -123 -31 -254
57 -284 191 -10 45 -9 59 5 95 18 45 95 160 203 303 100 132 166 158 276 112z"/>
<path d="M2089 1258 c-7 -18 -39 -89 -72 -158 -32 -69 -68 -145 -79 -170 -11
-25 -37 -81 -58 -125 -21 -44 -52 -109 -68 -145 -16 -36 -48 -103 -70 -150
-84 -180 -111 -239 -166 -357 -31 -67 -56 -123 -56 -125 0 -2 60 -3 134 -3
l134 -1 38 83 c26 60 43 85 58 88 12 2 124 3 249 2 l228 -2 36 -80 c19 -44 39
-82 43 -85 7 -4 261 -5 267 -1 1 1 -101 223 -197 426 -23 50 -55 117 -70 150
-15 33 -63 134 -105 225 -112 238 -141 301 -180 385 -19 41 -38 75 -43 75 -5
0 -15 -15 -23 -32z m97 -680 c36 -78 68 -149 71 -155 4 -10 -28 -13 -142 -13
-171 0 -161 -17 -85 144 78 169 82 177 87 172 3 -2 34 -69 69 -148z"/>
<path d="M7066 1238 c-22 -49 -37 -82 -132 -285 -20 -43 -51 -109 -69 -148
-18 -38 -49 -106 -70 -150 -20 -44 -63 -136 -95 -205 -32 -69 -81 -173 -108
-231 -55 -115 -82 -178 -82 -188 0 -3 59 -6 132 -6 l131 0 41 85 41 85 244 0
245 0 23 -50 c14 -27 32 -66 42 -85 l17 -35 132 0 c73 -1 132 2 132 6 0 3 -23
55 -51 115 -28 60 -64 136 -79 169 -15 33 -75 161 -133 285 -57 124 -114 245
-125 270 -11 25 -47 101 -80 170 -32 69 -71 153 -87 188 -15 34 -32 62 -36 62
-5 0 -20 -24 -33 -52z m73 -590 c92 -201 104 -229 99 -233 -3 -3 -68 -4 -146
-3 l-140 3 71 157 c40 87 73 158 75 158 1 0 20 -37 41 -82z"/>
<path d="M9062 1280 c-207 -43 -341 -233 -294 -419 29 -114 95 -177 287 -273
173 -87 244 -138 264 -189 31 -82 -59 -150 -191 -145 -87 4 -134 23 -189 75
l-51 49 -98 -71 c-112 -79 -110 -71 -34 -156 87 -97 191 -141 342 -147 221 -9
374 65 449 215 25 49 28 67 28 151 0 118 -21 167 -110 253 -50 49 -88 72 -235
144 -196 96 -224 118 -217 169 6 43 20 60 70 86 77 39 178 20 240 -46 l32 -35
72 52 c39 29 79 57 89 63 16 9 17 14 4 44 -31 75 -123 148 -220 173 -64 16
-176 19 -238 7z"/>
<path d="M849 1226 c0 -49 0 -1164 1 -1187 0 -14 16 -17 125 -16 l125 0 0 248
0 249 212 2 213 3 0 123 1 122 -213 0 -213 0 0 124 0 123 248 0 247 -1 1 126
1 125 -373 0 -374 0 -1 -41z"/>
<path d="M2882 1262 l-22 -3 2 -617 3 -617 123 0 122 0 0 617 c0 340 -3 618
-7 619 -23 3 -201 4 -221 1z"/>
<path d="M3359 1259 c-15 -9 -10 -1227 5 -1232 6 -2 62 -3 125 -2 l114 0 0
288 c0 158 1 287 2 287 0 0 88 -129 195 -288 l194 -287 148 0 c81 0 148 3 148
8 0 4 -76 115 -169 245 l-169 236 46 27 c61 35 104 82 137 148 33 66 40 97 38
186 -2 165 -111 307 -281 366 -50 18 -85 21 -290 22 -129 1 -238 -1 -243 -4z
m479 -269 c54 -30 86 -92 77 -147 -14 -89 -85 -142 -185 -137 -19 1 -56 2 -81
3 l-46 1 0 148 c0 81 4 149 8 153 5 3 49 4 97 4 73 -1 96 -6 130 -25z"/>
<path d="M4449 1265 c-1 0 -2 -278 -3 -617 -1 -406 2 -619 9 -621 19 -6 431 0
485 7 214 29 392 161 464 345 47 121 58 308 25 445 -58 239 -245 400 -504 433
-30 4 -279 8 -476 8z m482 -265 c115 -31 200 -105 240 -209 16 -42 22 -78 22
-146 0 -177 -71 -285 -225 -343 -50 -19 -84 -24 -168 -26 l-105 -1 -1 360 c0
198 1 365 3 371 5 14 175 10 234 -6z"/>
<path d="M5642 1256 c-8 -13 -9 -1198 -1 -1216 6 -13 55 -15 371 -14 199 1
365 2 368 3 7 1 7 241 0 242 -3 1 -112 2 -242 3 -130 1 -240 4 -244 9 -6 6 -8
104 -5 223 1 21 4 22 174 22 94 0 190 1 212 1 l41 1 -2 118 c-1 64 -2 120 -3
123 -1 4 -96 6 -211 5 l-210 -1 -1 35 c-3 113 -1 188 4 197 4 6 97 10 242 10
129 0 238 3 242 7 4 4 8 59 8 122 0 95 -2 114 -15 115 -115 6 -723 2 -728 -5z"/>
<path d="M7847 1255 c-3 -9 -1 -1196 2 -1220 1 -7 131 -10 371 -10 l370 0 1
35 c1 34 1 155 0 195 -1 20 -7 20 -242 20 -153 0 -243 3 -248 10 -4 5 -7 225
-7 488 1 266 -3 481 -8 484 -16 10 -236 8 -239 -2z"/>
</g>
</svg>
